PathFileType	4	(X/Y/Z)	D:\Long Term Storage\D'Arcy Smith\Coord19.trc
DataRate	CameraRate	NumFrames	NumMarkers	Units	OrigDataRate	OrigDataStartFrame	OrigNumFrames
120.00	120.00	      103	4	mm	120.00	613	      4903
Frame#	Time	M1			M2			M3			M4			
		X1	Y1	Z1	X2	Y2	Z2	X3	Y3	Z3	X4	Y4	Z4	

613	5.100	641.97357	338.41013	451.48816	915.61682	316.56631	413.02597							
614	5.108	642.79907	337.31171	447.06879	917.13849	313.02069	400.04114							
615	5.117	643.35059	335.79333	441.90182	918.61700	309.39279	386.41006							
616	5.125	644.21381	334.38617	435.74390	920.19104	306.48529	372.91354							
617	5.133	644.40350	332.70267	429.18088	921.92212	304.07724	358.42456							
618	5.142	644.93567	331.63522	422.08377	923.73480	302.15125	343.85294							
619	5.150	645.45001	330.99026	414.63977	925.65076	300.59976	328.39526							
620	5.158	645.90741	330.58118	406.64053	927.65686	299.51175	312.81671							
621	5.167	646.25092	330.34946	398.53860	929.35919	298.75687	296.48972							
622	5.175	646.63721	330.50403	390.15048	931.27551	298.92102	280.69733							
623	5.183	647.14063	330.98956	381.29446	933.14972	299.56812	264.97235							
624	5.192	647.40576	331.55777	371.96634	934.71741	300.72427	249.31361							
625	5.200	648.07947	332.58417	362.39218	936.40833	302.32422	233.43727							
626	5.208	648.64673	334.11267	352.45874	938.03424	304.45477	217.58910							
627	5.217	649.45746	336.01395	342.36105	939.51270	307.11911	201.89108							
628	5.225	650.14899	338.32016	331.80103	940.83942	310.30380	186.97859							
629	5.233	650.94434	341.19843	320.52631	942.18036	313.95590	172.37192							
630	5.242	651.71417	344.76047	308.74066	942.10138	318.86316	157.25839							
631	5.250	652.38037	348.94257	296.20074	943.27478	322.69003	143.78386							
632	5.258	653.24329	353.67313	282.47171	944.22662	328.16730	130.06146							
633	5.267	654.30573	359.14279	267.67529	944.63641	332.59988	118.02308							
634	5.275	655.22070	365.43396	251.55666	945.68634	338.26727	105.83180							
635	5.283	656.69971	372.41034	234.36128	946.13904	343.87662	92.26324							
636	5.292	658.17633	380.09268	216.08966	946.42218	349.12292	81.81087							
637	5.300	659.71643	388.87570	197.25848	946.48816	353.96109	71.99839							
638	5.308	661.13489	398.53702	177.85799	945.86157	358.33868	63.03942							
639	5.317	662.90356	409.79639	157.93491	946.13910	363.56952	54.33275							
640	5.325	663.75781	421.02936	141.38272	945.80139	367.77567	46.85604							
641	5.333	664.78589	433.21472	120.31453	945.56854	372.05591	39.99966							
642	5.342	665.08185	445.50031	103.06561	945.06915	375.88940	33.87054							
643	5.350	665.28271	458.11853	86.97472	944.82886	379.55621	29.03151							
644	5.358	664.90497	471.36450	72.33310	944.44299	383.19299	24.56971							
645	5.367	664.47565	483.40228	59.49227	943.85596	385.90158	21.00873							
646	5.375	663.71863	494.54251	48.68715	943.52679	388.73215	18.16626							
647	5.383	662.92102	504.29611	40.34275	942.38116	390.19379	16.66228							
648	5.392	662.07520	512.75934	33.08880	941.47430	390.99335	15.96408							
649	5.400	661.38910	519.87366	28.00679	940.43591	391.78912	15.51856							
650	5.408	660.73364	523.78668	25.63024	939.37317	392.01663	15.80707							
651	5.417	660.42450	526.85693	24.13212	938.39130	391.68900	16.53833							
652	5.425	660.37494	527.94446	24.26724	937.30676	390.81387	18.01900							
653	5.433	660.45770	527.25684	25.93710	935.97052	389.56104	20.67177							
654	5.442	661.10052	525.61768	28.32527	934.97772	387.88257	22.51531							
655	5.450	661.68018	522.84247	31.08114	933.70209	385.85785	25.56958							
656	5.458	662.35199	519.35834	34.44959	932.28296	383.47253	29.28532							
657	5.467	663.41156	515.03448	38.34085	930.91504	380.75720	33.37841							
658	5.475	664.60028	510.22079	42.46223	929.47119	377.90118	38.02555							
659	5.483	666.01300	504.77988	46.77599	928.02429	374.69504	43.27663							
660	5.492	667.67401	499.26294	50.95323	926.44812	371.35086	48.83527							
661	5.500	669.25739	493.16858	55.41393	924.99164	367.93231	54.83252							
662	5.508	670.99298	486.78986	60.09430	923.61359	364.43387	61.29187							
663	5.517	672.45972	479.98276	65.23017	922.06458	360.89133	68.06983							
664	5.525	673.91656	472.76486	70.96796	920.82977	357.22256	75.01778							
665	5.533	675.15100	464.94345	77.57792	919.60901	353.28217	83.03760							
666	5.542	676.09973	456.56122	85.42911	918.34125	349.21790	91.09748							
667	5.550	676.94153	447.23898	94.96195	916.95435	345.01395	99.37935							
668	5.558	677.51947	437.32605	105.97752	915.80652	340.46866	108.50313							
669	5.567	677.96063	426.23264	119.02892	914.44678	335.33224	119.86808							
670	5.575	677.86713	414.99860	134.08928	913.33722	330.93134	129.43567							
671	5.583	677.76080	404.36465	150.56583	912.52563	326.33475	139.07304							
672	5.592	677.73383	394.16177	168.42668	911.73297	321.78745	149.40912							
673	5.600	676.90759	384.48166	190.57170	911.43317	317.91879	159.89961							
674	5.608	676.05255	375.34207	210.72388	911.01971	312.63004	171.61021							
675	5.617	674.66736	367.44107	231.94345	911.55920	309.00909	182.70683							
676	5.625	672.92078	360.42841	253.74821	912.52576	304.48111	195.57851							
677	5.633	670.61273	354.62540	276.00250	912.68018	300.71945	208.46423							
678	5.642	667.41785	349.94629	299.19421	913.11639	297.50208	221.86934							
679	5.650	664.16040	346.65988	319.83026	913.75629	294.74927	235.74007							
680	5.658	659.98810	344.89304	342.95160	914.63391	292.33224	249.65430							
681	5.667	655.63660	344.98685	366.26547	915.51117	290.63492	264.20010							
682	5.675	650.27100	346.43912	387.76688	916.65607	289.40039	278.77881							
683	5.683	644.67316	349.39566	408.30655	917.94604	288.77682	293.73111							
684	5.692	639.61407	353.79855	427.15952	919.26062	288.95404	308.82129							
685	5.700	633.71686	358.34113	443.87735	920.69409	289.61606	323.88553							
686	5.708	628.88275	363.88489	458.73303	922.26440	290.81506	338.95688							
687	5.717	623.74744	369.05212	472.69034	923.75134	292.36740	353.43713							
688	5.725	619.75714	373.90710	482.61200	925.37054	295.10257	368.11960							
689	5.733	616.26978	377.94946	490.12335	926.98077	298.05417	382.48773							
690	5.742	613.74982	381.10037	495.12177	927.59875	301.63477	395.68304							
691	5.750	612.44641	383.03085	497.51462	929.26544	305.61307	408.94266							
692	5.758	611.63873	383.83142	497.68701	930.73309	309.71890	421.67523							
693	5.767	611.79297	383.64252	495.68689	932.07190	313.88818	434.16214							
694	5.775	612.30640	382.36517	491.67197	933.68408	318.44235	445.81229							
695	5.783	614.46179	381.01358	485.39871	934.94757	323.23871	456.68439							
696	5.792	616.22449	378.41379	477.59543	936.04950	328.17776	467.03177							
697	5.800	619.76282	376.16861	467.64838	936.95612	333.20761	475.53146							
698	5.808	622.93213	372.91150	455.03931	938.21301	338.56055	486.00525							
699	5.817	627.45502	370.51328	442.28989	939.13092	343.39813	494.44980							
700	5.825	631.61609	367.77271	428.25308	939.76257	347.73630	502.57736							
701	5.833	636.56946	365.65100	412.44608	940.67932	352.31638	509.25397							
702	5.842	641.83868	364.32394	395.62198	941.15857	356.62537	515.89075							
703	5.850	647.36334	363.28995	375.71494	941.80719	360.71469	521.45428							
704	5.858	652.79846	363.82993	357.68774	942.49536	364.40195	527.08148							
705	5.867	658.57684	365.10797	337.73795	942.93427	367.74088	531.58490							
706	5.875	664.29034	367.50204	317.34091	943.16486	370.79333	535.51672							
707	5.883	669.91199	371.25177	296.58279	943.43506	373.56714	538.95929							
708	5.892	675.32074	376.09586	275.85944	943.43005	375.84595	541.64819							
709	5.900	680.28210	382.08725	255.61108	943.53473	377.86215	543.80634							
710	5.908	684.67749	389.79861	236.26682	943.38019	379.41724	545.45215							
711	5.917	688.83978	397.70822	216.29088	943.24237	380.33759	546.49170							
712	5.925	692.47656	406.86789	197.21832	943.01312	380.93701	546.78259							
713	5.933	695.45947	416.91705	179.03168	942.75726	381.16089	546.73657							
714	5.942	698.16028	427.79486	161.40236	942.62244	381.08789	545.46912							
715	5.950	700.31439	439.15250	144.73013	941.79120	380.27292	544.91644							
